# xmcd
#
# Track frame offsets: 
#        150
#        16778
#        35374
#        55344
#        72024
#        88085
#        105843
#        122179
#        139600
#        158306
#        175932
#        195491
#        216161
#
# Disc length: 3183 seconds
#
# Revision: 1
# Processed by: cddbd v1.5.2PL0 Copyright (c) Steve Scherf et al.
# Submitted via: ExactAudioCopy v0.99pb5
#
DISCID=9f0c6d0d
DTITLE=Yoskar Sarante - Vuelve Vuelve
DYEAR=2008
DGENRE=Bachata
TTITLE0=Se Muere Un Hombre
TTITLE1=Cuando Se Va Un Amor
TTITLE2=Cuéntale
TTITLE3=Dame Una Oportunidad
TTITLE4=Y Le Mentí De Nuevo Al Amor
TTITLE5=Escobita Nueva
TTITLE6=Esta Vida
TTITLE7=Estoy Llorando
TTITLE8=Me Voy Del Pueblo
TTITLE9=Princesa
TTITLE10=Si Pero No
TTITLE11=Ven
TTITLE12=Vuelve Vuelve
EXTD=
EXTT0=
EXTT1=
EXTT2=
EXTT3=
EXTT4=
EXTT5=
EXTT6=
EXTT7=
EXTT8=
EXTT9=
EXTT10=
EXTT11=
EXTT12=
PLAYORDER=
